<svg width="16" height="16" viewBox="0 0 16 16" fill="none" xmlns="http://www.w3.org/2000/svg">
<g clip-path="url(#clip0_451:49502)">
<circle cx="8" cy="8" r="8" fill="white"/>
<path d="M11.7588 5.1096L8.5936 3.29714C8.40841 3.19069 8.1984 3.135 7.9848 3.13569C7.77119 3.13638 7.56155 3.19342 7.37705 3.30107L4.22348 5.13535C4.03932 5.24283 3.88654 5.39668 3.78033 5.58158C3.67413 5.76647 3.61821 5.97597 3.61816 6.1892L3.63053 9.83808C3.63182 10.0517 3.68909 10.2613 3.79664 10.446C3.90419 10.6306 4.05825 10.7838 4.24347 10.8903L7.40776 12.7023C7.59304 12.8089 7.80318 12.8647 8.01695 12.8641C8.23071 12.8635 8.44054 12.8065 8.62522 12.6988L11.7797 10.864C11.9633 10.7557 12.1154 10.6013 12.2211 10.4162C12.3267 10.231 12.3821 10.0215 12.3819 9.80835L12.3695 6.15952C12.3679 5.94648 12.3108 5.73754 12.2037 5.55339C12.0966 5.36924 11.9432 5.21626 11.7588 5.1096Z" fill="#FFF19F"/>
<path d="M10.323 6.21357L8.36678 5.09338C8.25232 5.02759 8.12253 4.99317 7.99051 4.9936C7.85849 4.99402 7.72892 5.02927 7.61489 5.0958L5.66586 6.22949C5.55201 6.29592 5.45756 6.39103 5.39192 6.50534C5.32628 6.61966 5.29174 6.74917 5.29175 6.88099L5.29939 9.13617C5.30012 9.26826 5.33548 9.39784 5.40193 9.512C5.46839 9.62616 5.56362 9.72089 5.67812 9.78675L7.63382 10.9067C7.74834 10.9726 7.87822 11.0071 8.01035 11.0067C8.14247 11.0063 8.27214 10.9711 8.38629 10.9045L10.3359 9.77052C10.4494 9.70356 10.5435 9.60811 10.6088 9.49362C10.6741 9.37913 10.7083 9.24957 10.7081 9.11778L10.7005 6.8626C10.6996 6.73091 10.6643 6.60175 10.5981 6.48791C10.5319 6.37407 10.437 6.2795 10.323 6.21357Z" fill="#FFDD0F"/>
<path d="M9.43573 6.89583L8.22666 6.20352C8.15593 6.16286 8.07572 6.14158 7.99413 6.14185C7.91254 6.14211 7.83248 6.16391 7.76201 6.20503L6.55761 6.90573C6.48725 6.94679 6.42889 7.00556 6.38832 7.0762C6.34776 7.14684 6.32642 7.22688 6.32642 7.30834L6.33114 8.70216C6.33164 8.78377 6.35351 8.86383 6.39458 8.93436C6.43566 9.00489 6.4945 9.06342 6.56525 9.10412L7.77394 9.79622C7.84471 9.83695 7.92497 9.85828 8.00663 9.85805C8.08828 9.85783 8.16843 9.83605 8.23897 9.79493L9.44397 9.09407C9.5141 9.05269 9.5722 8.99372 9.61255 8.923C9.6529 8.85227 9.67411 8.77224 9.67404 8.69081L9.6693 7.297C9.66869 7.21558 9.64681 7.13573 9.60585 7.06537C9.56488 6.995 9.50624 6.93656 9.43573 6.89583Z" fill="#FFDD0F"/>
<path d="M21.511 5.07637L18.3458 3.26397C18.1606 3.15751 17.9506 3.1018 17.737 3.10248C17.5234 3.10316 17.3137 3.1602 17.1292 3.26784L13.9756 5.10218C13.7914 5.20968 13.6386 5.36358 13.5324 5.54853C13.4262 5.73347 13.3704 5.94302 13.3704 6.15629L13.3827 9.80512C13.384 10.0188 13.4413 10.2284 13.5488 10.413C13.6564 10.5977 13.8104 10.7509 13.9957 10.8574L17.16 12.6694C17.3453 12.776 17.5554 12.8318 17.7692 12.8312C17.983 12.8306 18.1928 12.7736 18.3775 12.6659L21.5319 10.8311C21.7155 10.7228 21.8676 10.5684 21.9733 10.3833C22.0789 10.1981 22.1343 9.9886 22.1341 9.77544L22.1218 6.12661C22.1203 5.91352 22.0631 5.70452 21.956 5.52031C21.8489 5.33609 21.6955 5.18306 21.511 5.07637Z" fill="#FFF19F"/>
<path d="M20.0752 6.18038L18.119 5.06024C18.0046 4.99445 17.8748 4.96003 17.7428 4.96045C17.6107 4.96088 17.4812 4.99614 17.3671 5.06266L15.4181 6.19635C15.3042 6.2628 15.2098 6.35791 15.1441 6.47222C15.0785 6.58653 15.044 6.71604 15.0439 6.84786L15.0516 9.10298C15.0524 9.23507 15.0877 9.36466 15.1542 9.47882C15.2206 9.59297 15.3159 9.68771 15.4304 9.75356L17.3861 10.8734C17.5006 10.9393 17.6304 10.9739 17.7626 10.9735C17.8947 10.9731 18.0243 10.9379 18.1385 10.8713L20.0881 9.73733C20.2016 9.67039 20.2956 9.57499 20.3609 9.46055C20.4262 9.34611 20.4605 9.21661 20.4603 9.08486L20.4527 6.82968C20.4518 6.69795 20.4165 6.56874 20.3503 6.45485C20.2841 6.34096 20.1893 6.24635 20.0752 6.18038Z" fill="#FFEB6F"/>
<path d="M1.85401 5.14317L-1.31123 3.33071C-1.49642 3.22426 -1.70642 3.16857 -1.92003 3.16926C-2.13363 3.16995 -2.34327 3.22699 -2.52777 3.33464L-5.68136 5.16892C-5.8655 5.27641 -6.01828 5.43026 -6.12448 5.61516C-6.23067 5.80005 -6.28658 6.00954 -6.28662 6.22277L-6.27424 9.87165C-6.27297 10.0853 -6.2157 10.2949 -6.10815 10.4795C-6.0006 10.6642 -5.84653 10.8174 -5.6613 10.9239L-2.49696 12.7358C-2.31168 12.8425 -2.10154 12.8983 -1.88777 12.8977C-1.67401 12.8971 -1.46419 12.8401 -1.27951 12.7324L1.87493 10.8976C2.05853 10.7893 2.21065 10.6349 2.31627 10.4498C2.42189 10.2646 2.47734 10.0551 2.47713 9.84192L2.46476 6.19309C2.46321 5.98005 2.40604 5.77111 2.29892 5.58696C2.1918 5.40281 2.03843 5.24983 1.85401 5.14317Z" fill="#FFF19F"/>
<path d="M0.418262 6.24714L-1.53797 5.127C-1.65242 5.06119 -1.7822 5.02675 -1.91422 5.02716C-2.04624 5.02758 -2.17581 5.06283 -2.28985 5.12937L-4.23892 6.26306C-4.35276 6.3295 -4.44721 6.42462 -4.51285 6.53892C-4.57849 6.65323 -4.61303 6.78274 -4.61304 6.91456L-4.60536 9.16973C-4.60463 9.30182 -4.56927 9.43141 -4.50281 9.54557C-4.43635 9.65973 -4.34111 9.75446 -4.22661 9.82032L-2.27093 10.9402C-2.15642 11.0061 -2.02654 11.0406 -1.89443 11.0402C-1.76231 11.0399 -1.63263 11.0046 -1.5185 10.9381L0.431114 9.80408C0.544589 9.73715 0.638617 9.64175 0.703903 9.52733C0.769189 9.4129 0.803463 9.28341 0.803339 9.15166L0.795712 6.89649C0.794834 6.76475 0.759543 6.63552 0.693336 6.52162C0.627129 6.40772 0.532304 6.3131 0.418262 6.24714Z" fill="#FFEB6F"/>
<path d="M16.6121 -3.57606L13.4469 -5.38862C13.2617 -5.49509 13.0517 -5.55079 12.8381 -5.5501C12.6245 -5.54941 12.4148 -5.49236 12.2303 -5.3847L9.07674 -3.55041C8.89258 -3.44294 8.73979 -3.28909 8.63359 -3.10419C8.52739 -2.91929 8.47149 -2.7098 8.47144 -2.49657L8.48385 1.15226C8.48512 1.36594 8.54238 1.57554 8.64993 1.76018C8.75749 1.94482 8.91156 2.09804 9.0968 2.20455L12.2611 4.01652C12.4464 4.12314 12.6566 4.17897 12.8703 4.17836C13.0841 4.17776 13.2939 4.12074 13.4786 4.01307L16.633 2.17826C16.8166 2.06994 16.9688 1.91557 17.0744 1.73042C17.18 1.54526 17.2354 1.33574 17.2352 1.12258L17.2229 -2.52625C17.2213 -2.73927 17.1641 -2.94819 17.057 -3.13232C16.9498 -3.31645 16.7965 -3.46941 16.6121 -3.57606Z" fill="#FFF19F"/>
<path d="M15.1766 -2.47203L13.2203 -3.59222C13.1058 -3.65801 12.9761 -3.69244 12.844 -3.69201C12.712 -3.69159 12.5825 -3.65633 12.4685 -3.5898L10.5194 -2.45611C10.4055 -2.38968 10.3111 -2.29457 10.2454 -2.18026C10.1798 -2.06595 10.1452 -1.93643 10.1453 -1.80461L10.1529 0.450565C10.1536 0.582654 10.189 0.712241 10.2555 0.826397C10.3219 0.940553 10.4171 1.03529 10.5316 1.10115L12.4874 2.22103C12.6019 2.28694 12.7318 2.32146 12.8639 2.32109C12.996 2.32072 13.1257 2.28548 13.2398 2.21893L15.1894 1.08492C15.3029 1.01798 15.3969 0.922575 15.4622 0.808137C15.5275 0.693699 15.5618 0.564197 15.5617 0.432446L15.554 -1.82267C15.5531 -1.95442 15.5178 -2.08364 15.4516 -2.19755C15.3854 -2.31145 15.2906 -2.40607 15.1766 -2.47203Z" fill="#FFEB6F"/>
<path d="M5.28325 -2.47203L3.32697 -3.59222C3.21252 -3.65801 3.08274 -3.69244 2.95073 -3.69201C2.81872 -3.69159 2.68916 -3.65633 2.57514 -3.5898L0.626068 -2.45611C0.512214 -2.38968 0.417753 -2.29457 0.352111 -2.18026C0.286469 -2.06595 0.251939 -1.93643 0.251953 -1.80461L0.25958 0.450565C0.26032 0.582654 0.295684 0.712241 0.36214 0.826397C0.428596 0.940553 0.523831 1.03529 0.638329 1.10115L2.59407 2.22103C2.70857 2.28694 2.83845 2.32146 2.97056 2.32109C3.10268 2.32072 3.23236 2.28548 3.34649 2.21893L5.2961 1.08492C5.40959 1.01798 5.50362 0.922575 5.56891 0.808137C5.63419 0.693699 5.66848 0.564197 5.66834 0.432446L5.6607 -1.82267C5.65983 -1.95442 5.62453 -2.08364 5.55833 -2.19755C5.49212 -2.31145 5.3973 -2.40607 5.28325 -2.47203Z" fill="#FFDD0F"/>
<path d="M6.68897 -3.54247L3.52372 -5.35487C3.33854 -5.46134 3.12855 -5.51704 2.91495 -5.51635C2.70135 -5.51566 2.49171 -5.4586 2.30723 -5.35094L-0.846341 -3.51666C-1.0305 -3.40918 -1.18329 -3.25533 -1.28949 -3.07043C-1.39569 -2.88554 -1.45161 -2.67604 -1.45166 -2.46281L-1.43929 1.18602C-1.43802 1.39969 -1.38075 1.6093 -1.2732 1.79393C-1.16565 1.97857 -1.01157 2.13179 -0.826336 2.2383L2.33798 4.05027C2.52327 4.15689 2.73341 4.21271 2.94718 4.21211C3.16094 4.2115 3.37077 4.15449 3.55545 4.04683L6.70988 2.21201C6.89349 2.10371 7.04563 1.94934 7.15125 1.76419C7.25687 1.57903 7.31231 1.3695 7.31208 1.15634L7.29971 -2.49249C7.29818 -2.70554 7.24103 -2.9145 7.13391 -3.09866C7.02678 -3.28282 6.87341 -3.43581 6.68897 -3.54247Z" fill="#FFF19F"/>
<path d="M16.6121 13.7952L13.4469 11.9828C13.2617 11.8764 13.0517 11.8207 12.8381 11.8214C12.6245 11.822 12.4148 11.8791 12.2303 11.9868L9.07674 13.821C8.89254 13.9285 8.73973 14.0824 8.63353 14.2674C8.52732 14.4523 8.47144 14.6619 8.47144 14.8752L8.48385 18.524C8.48512 18.7377 8.54238 18.9473 8.64993 19.1319C8.75749 19.3165 8.91156 19.4698 9.0968 19.5763L12.2611 21.3882C12.4464 21.4949 12.6566 21.5507 12.8703 21.5501C13.0841 21.5495 13.2939 21.4925 13.4786 21.3848L16.633 19.55C16.8166 19.4417 16.9688 19.2873 17.0744 19.1022C17.18 18.917 17.2354 18.7075 17.2352 18.4943L17.2229 14.8455C17.2213 14.6324 17.1642 14.4234 17.0571 14.2392C16.9499 14.055 16.7965 13.9019 16.6121 13.7952Z" fill="#FFF19F"/>
<path d="M15.1766 14.8768L13.2203 13.7569C13.1058 13.6911 12.9761 13.6567 12.844 13.6571C12.712 13.6575 12.5825 13.6928 12.4685 13.7593L10.5194 14.893C10.4055 14.9594 10.3111 15.0546 10.2454 15.1689C10.1798 15.2832 10.1452 15.4127 10.1453 15.5445L10.1529 17.7997C10.1537 17.9317 10.1891 18.0613 10.2555 18.1754C10.322 18.2895 10.4172 18.3842 10.5316 18.45L12.4874 19.5699C12.6019 19.6358 12.7318 19.6703 12.8639 19.6699C12.996 19.6696 13.1257 19.6343 13.2398 19.5678L15.1894 18.4338C15.3029 18.3668 15.3969 18.2714 15.4622 18.157C15.5275 18.0426 15.5618 17.913 15.5617 17.7813L15.554 15.5262C15.5531 15.3944 15.5178 15.2652 15.4516 15.1513C15.3854 15.0374 15.2906 14.9428 15.1766 14.8768Z" fill="#FFEB6F"/>
<path d="M5.27178 14.8993L3.31556 13.7794C3.2011 13.7136 3.07131 13.6792 2.93929 13.6796C2.80728 13.6801 2.6777 13.7153 2.56367 13.7818L0.614594 14.9155C0.500757 14.982 0.406315 15.0771 0.340676 15.1914C0.275037 15.3057 0.240492 15.4352 0.240479 15.567L0.248171 17.8222C0.248942 17.9542 0.284315 18.0838 0.35077 18.1979C0.417226 18.312 0.512437 18.4067 0.626907 18.4725L2.5826 19.5924C2.6971 19.6583 2.82697 19.6928 2.95909 19.6925C3.09121 19.6921 3.22088 19.6568 3.33502 19.5903L5.28463 18.4563C5.39811 18.3893 5.49215 18.2939 5.55745 18.1795C5.62274 18.0651 5.65703 17.9356 5.65692 17.8038L5.6494 15.5484C5.64845 15.4167 5.61311 15.2875 5.54688 15.1736C5.48065 15.0598 5.38581 14.9652 5.27178 14.8993Z" fill="#FFDD0F"/>
<path d="M6.70753 13.8287L3.54227 12.0163C3.3571 11.9099 3.1471 11.8542 2.9335 11.8549C2.7199 11.8556 2.51027 11.9126 2.32578 12.0203L-0.827787 13.8546C-1.01199 13.9621 -1.1648 14.1159 -1.271 14.3009C-1.37721 14.4858 -1.4331 14.6954 -1.43311 14.9087L-1.42074 18.5575C-1.41947 18.7712 -1.3622 18.9808 -1.25465 19.1654C-1.1471 19.3501 -0.993018 19.5033 -0.807781 19.6098L2.35654 21.4218C2.54182 21.5284 2.75196 21.5842 2.96573 21.5836C3.1795 21.583 3.38932 21.526 3.574 21.4183L6.72844 19.5835C6.91205 19.4752 7.06419 19.3208 7.16982 19.1357C7.27544 18.9505 7.33087 18.741 7.33063 18.5278L7.31827 14.879C7.31678 14.6659 7.25965 14.4569 7.15253 14.2727C7.0454 14.0885 6.892 13.9354 6.70753 13.8287Z" fill="#FFF19F"/>
<path d="M5.24639 -2.47203L3.29011 -3.59222C3.17566 -3.65801 3.04588 -3.69244 2.91386 -3.69201C2.78185 -3.69159 2.6523 -3.65633 2.53828 -3.5898L0.589203 -2.45611C0.475348 -2.38968 0.380887 -2.29457 0.315246 -2.18026C0.249604 -2.06595 0.215074 -1.93643 0.215088 -1.80461L0.222715 0.450565C0.223455 0.582654 0.258819 0.712241 0.325275 0.826397C0.391731 0.940553 0.486966 1.03529 0.601464 1.10115L2.55721 2.22103C2.67171 2.28694 2.80158 2.32146 2.9337 2.32109C3.06582 2.32072 3.19549 2.28548 3.30963 2.21893L5.25924 1.08492C5.37272 1.01798 5.46676 0.922575 5.53204 0.808137C5.59733 0.693699 5.63161 0.564197 5.63148 0.432446L5.62384 -1.82267C5.62297 -1.95442 5.58767 -2.08364 5.52146 -2.19755C5.45526 -2.31145 5.36043 -2.40607 5.24639 -2.47203Z" fill="#FFEB6F"/>
<path d="M5.24639 14.8544L3.29011 13.7342C3.17566 13.6684 3.04588 13.634 2.91386 13.6344C2.78185 13.6348 2.6523 13.6701 2.53828 13.7366L0.589203 14.8703C0.475348 14.9367 0.380887 15.0318 0.315246 15.1462C0.249604 15.2605 0.215074 15.39 0.215088 15.5218L0.222715 17.777C0.223455 17.9091 0.258819 18.0387 0.325275 18.1528C0.391731 18.267 0.486966 18.3617 0.601464 18.4276L2.55721 19.5474C2.67171 19.6134 2.80158 19.6479 2.9337 19.6475C3.06582 19.6471 3.19549 19.6119 3.30963 19.5453L5.25924 18.4113C5.37272 18.3444 5.46676 18.249 5.53204 18.1346C5.59733 18.0201 5.63161 17.8906 5.63148 17.7589L5.62384 15.5037C5.62297 15.372 5.58767 15.2428 5.52146 15.1289C5.45526 15.015 5.36043 14.9203 5.24639 14.8544Z" fill="#FFEB6F"/>
</g>
<defs>
<clipPath id="clip0_451:49502">
<path d="M0 8C0 3.58172 3.58172 0 8 0C12.4183 0 16 3.58172 16 8C16 12.4183 12.4183 16 8 16C3.58172 16 0 12.4183 0 8Z" fill="white"/>
</clipPath>
</defs>
</svg>
