<svg width="64" height="64" viewBox="0 0 64 64" fill="none" xmlns="http://www.w3.org/2000/svg">
<g clip-path="url(#clip0_451:49376)">
<circle cx="32" cy="32" r="32" fill="white"/>
<path d="M47.0349 20.4383L34.3741 13.1885C33.6334 12.7626 32.7934 12.5399 31.939 12.5426C31.0845 12.5454 30.246 12.7736 29.508 13.2042L16.8937 20.5413C16.157 20.9712 15.5459 21.5866 15.1211 22.3262C14.6963 23.0658 14.4726 23.9038 14.4724 24.7567L14.5219 39.3522C14.527 40.2069 14.7561 41.0452 15.1863 41.7837C15.6165 42.5222 16.2328 43.1351 16.9737 43.5611L29.6308 50.809C30.3719 51.2355 31.2125 51.4588 32.0675 51.4564C32.9226 51.4539 33.7619 51.2259 34.5006 50.7952L47.1186 43.456C47.853 43.0227 48.4615 42.4053 48.884 41.6647C49.3065 40.924 49.5283 40.0859 49.5274 39.2333L49.4777 24.6379C49.4716 23.7858 49.2429 22.9501 48.8145 22.2134C48.386 21.4768 47.7726 20.8649 47.0349 20.4383Z" fill="#FFF19F"/>
<path d="M41.2924 24.8542L33.4674 20.3734C33.0095 20.1102 32.4904 19.9726 31.9623 19.9743C31.4342 19.976 30.9159 20.117 30.4598 20.3831L22.6637 24.9178C22.2083 25.1836 21.8305 25.564 21.5679 26.0213C21.3054 26.4785 21.1672 26.9966 21.1672 27.5238L21.1978 36.5445C21.2007 37.0729 21.3422 37.5912 21.608 38.0479C21.8738 38.5045 22.2547 38.8834 22.7127 39.1469L30.5355 43.6266C30.9936 43.8902 31.5131 44.0282 32.0416 44.0266C32.5701 44.0251 33.0888 43.8842 33.5454 43.618L41.3438 39.0819C41.7979 38.8141 42.1742 38.4323 42.4354 37.9744C42.6965 37.5164 42.8335 36.9982 42.8328 36.471L42.8022 27.4503C42.7985 26.9235 42.6573 26.4069 42.3925 25.9515C42.1276 25.4962 41.7484 25.1179 41.2924 24.8542Z" fill="#FFDD0F"/>
<path d="M37.7432 27.5833L32.9069 24.8141C32.624 24.6514 32.3031 24.5663 31.9768 24.5674C31.6504 24.5684 31.3301 24.6556 31.0483 24.8201L26.2307 27.6229C25.9492 27.7871 25.7158 28.0223 25.5535 28.3048C25.3913 28.5874 25.3059 28.9075 25.3059 29.2334L25.3248 34.8086C25.3268 35.1351 25.4143 35.4553 25.5786 35.7374C25.7429 36.0196 25.9783 36.2537 26.2612 36.4165L31.096 39.1849C31.3791 39.3478 31.7001 39.4331 32.0268 39.4322C32.3534 39.4313 32.674 39.3442 32.9561 39.1797L37.7761 36.3763C38.0566 36.2108 38.2891 35.9749 38.4505 35.692C38.6119 35.4091 38.6967 35.089 38.6964 34.7633L38.6774 29.188C38.675 28.8623 38.5875 28.5429 38.4236 28.2615C38.2598 27.98 38.0252 27.7462 37.7432 27.5833Z" fill="#FFDD0F"/>
<path d="M86.0445 20.3053L73.3835 13.0558C72.6428 12.6299 71.8027 12.4071 70.9483 12.4098C70.0939 12.4125 69.2554 12.6407 68.5173 13.0712L55.903 20.4086C55.1662 20.8386 54.555 21.4542 54.1302 22.194C53.7055 22.9338 53.4819 23.772 53.4819 24.625L53.5314 39.2204C53.5365 40.0751 53.7656 40.9135 54.1958 41.652C54.626 42.3906 55.2423 43.0034 55.9832 43.4295L68.6406 50.6774C69.3817 51.1038 70.2223 51.3271 71.0773 51.3247C71.9324 51.3223 72.7717 51.0943 73.5104 50.6636L86.1282 43.3243C86.8625 42.8911 87.4711 42.2736 87.8935 41.533C88.316 40.7924 88.5378 39.9543 88.537 39.1016L88.4875 24.5063C88.4815 23.654 88.2529 22.8179 87.8244 22.0811C87.3959 21.3442 86.7823 20.7321 86.0445 20.3053Z" fill="#FFF19F"/>
<path d="M80.3007 24.7214L72.4759 20.2408C72.018 19.9776 71.4989 19.8399 70.9708 19.8416C70.4427 19.8433 69.9244 19.9844 69.4683 20.2505L61.672 24.7852C61.2166 25.051 60.8389 25.4315 60.5763 25.8887C60.3138 26.3459 60.1756 26.864 60.1755 27.3912L60.2063 36.4117C60.2092 36.9401 60.3507 37.4584 60.6165 37.9151C60.8823 38.3717 61.2632 38.7506 61.7213 39.0141L69.544 43.4936C70.002 43.7572 70.5215 43.8953 71.05 43.8938C71.5784 43.8923 72.0972 43.7514 72.5537 43.4852L80.3521 38.9491C80.8061 38.6814 81.1823 38.2998 81.4434 37.842C81.7045 37.3843 81.8416 36.8662 81.8411 36.3392L81.8105 27.3185C81.807 26.7916 81.6658 26.2748 81.401 25.8192C81.1362 25.3637 80.7569 24.9852 80.3007 24.7214Z" fill="#FFEB6F"/>
<path d="M7.41629 20.5725L-5.24467 13.3227C-5.98543 12.8969 -6.82544 12.6741 -7.67986 12.6768C-8.53428 12.6796 -9.37285 12.9078 -10.1108 13.3384L-22.7252 20.6755C-23.4618 21.1054 -24.0729 21.7209 -24.4977 22.4604C-24.9224 23.2 -25.1461 24.038 -25.1462 24.8909L-25.0967 39.4864C-25.0916 40.3411 -24.8626 41.1795 -24.4323 41.918C-24.0021 42.6565 -23.3859 43.2693 -22.6449 43.6953L-9.98761 50.9432C-9.24648 51.3697 -8.40592 51.593 -7.55085 51.5906C-6.69578 51.5882 -5.85652 51.3601 -5.11781 50.9295L7.49998 43.5904C8.23437 43.1571 8.84286 42.5396 9.26534 41.7989C9.68781 41.0583 9.90962 40.2202 9.90876 39.3675L9.8593 24.7722C9.8531 23.92 9.62441 23.0843 9.19592 22.3477C8.76743 21.611 8.15396 20.9991 7.41629 20.5725Z" fill="#FFF19F"/>
<path d="M1.67354 24.9885L-6.15138 20.5079C-6.60917 20.2447 -7.12832 20.1069 -7.6564 20.1086C-8.18448 20.1103 -8.70277 20.2513 -9.1589 20.5174L-16.9552 25.0522C-17.4106 25.3179 -17.7884 25.6984 -18.0509 26.1556C-18.3135 26.6129 -18.4516 27.1309 -18.4517 27.6582L-18.4209 36.6789C-18.418 37.2072 -18.2766 37.7256 -18.0108 38.1822C-17.7449 38.6388 -17.364 39.0178 -16.9059 39.2812L-9.08324 43.7609C-8.62518 44.0245 -8.10567 44.1625 -7.57722 44.1609C-7.04876 44.1594 -6.53005 44.0185 -6.07351 43.7523L1.72494 39.2163C2.17884 38.9485 2.55495 38.567 2.8161 38.1092C3.07724 37.6515 3.21434 37.1336 3.21384 36.6066L3.18334 27.5859C3.17982 27.0589 3.03866 26.542 2.77383 26.0864C2.509 25.6308 2.1297 25.2523 1.67354 24.9885Z" fill="#FFEB6F"/>
<path d="M66.4487 -14.3044L53.788 -21.5546C53.0472 -21.9805 52.2072 -22.2033 51.3528 -22.2005C50.4983 -22.1978 49.6598 -21.9695 48.9218 -21.5389L36.3075 -14.2018C35.5708 -13.7719 34.9597 -13.1565 34.5349 -12.4169C34.11 -11.6773 33.8864 -10.8393 33.8862 -9.9864L33.9359 4.60892C33.941 5.46362 34.17 6.30206 34.6002 7.04061C35.0304 7.77916 35.6467 8.39202 36.3877 8.81807L49.045 16.0659C49.7861 16.4924 50.6267 16.7157 51.4818 16.7133C52.3369 16.7109 53.1762 16.4828 53.9149 16.0522L66.5326 8.7129C67.267 8.27965 67.8755 7.66217 68.298 6.92155C68.7204 6.18093 68.9422 5.34285 68.9414 4.49021L68.8919 -10.1051C68.8856 -10.9572 68.6568 -11.7929 68.2283 -12.5294C67.7998 -13.2659 67.1863 -13.8778 66.4487 -14.3044Z" fill="#FFF19F"/>
<path d="M60.7063 -9.88804L52.8811 -14.3688C52.4233 -14.632 51.9042 -14.7697 51.3762 -14.768C50.8481 -14.7663 50.3299 -14.6253 49.8738 -14.3591L42.0775 -9.82438C41.6221 -9.55866 41.2443 -9.17822 40.9817 -8.72097C40.7191 -8.26372 40.581 -7.74565 40.5811 -7.21837L40.6116 1.80232C40.6145 2.33068 40.756 2.84902 41.0218 3.30565C41.2876 3.76227 41.6686 4.14122 42.1266 4.40467L49.9495 8.88416C50.4075 9.14783 50.927 9.2859 51.4555 9.28443C51.984 9.28295 52.5027 9.14199 52.9592 8.87577L60.7577 4.33972C61.2116 4.07199 61.5877 3.69036 61.8489 3.23261C62.11 2.77486 62.2472 2.25685 62.2466 1.72984L62.2161 -7.29064C62.2126 -7.81761 62.0714 -8.33452 61.8066 -8.79012C61.5417 -9.24573 61.1624 -9.62421 60.7063 -9.88804Z" fill="#FFEB6F"/>
<path d="M21.1333 -9.88804L13.3081 -14.3688C12.8503 -14.632 12.3312 -14.7697 11.8032 -14.768C11.2751 -14.7663 10.7569 -14.6253 10.3008 -14.3591L2.50452 -9.82438C2.0491 -9.55866 1.67125 -9.17822 1.40869 -8.72097C1.14612 -8.26372 1.008 -7.74565 1.00806 -7.21837L1.03856 1.80232C1.04152 2.33068 1.18298 2.84902 1.4488 3.30565C1.71463 3.76227 2.09557 4.14122 2.55356 4.40467L10.3765 8.88416C10.8345 9.14783 11.354 9.2859 11.8825 9.28443C12.411 9.28295 12.9297 9.14199 13.3862 8.87577L21.1847 4.33972C21.6386 4.07199 22.0147 3.69036 22.2759 3.23261C22.537 2.77486 22.6741 2.25685 22.6736 1.72984L22.6431 -7.29064C22.6396 -7.81761 22.4984 -8.33452 22.2335 -8.79012C21.9687 -9.24573 21.5894 -9.62421 21.1333 -9.88804Z" fill="#FFDD0F"/>
<path d="M26.7556 -14.17L14.0946 -21.4196C13.3539 -21.8455 12.514 -22.0683 11.6596 -22.0655C10.8052 -22.0628 9.96661 -21.8345 9.22867 -21.4039L-3.38561 -14.0668C-4.12225 -13.6368 -4.7334 -13.0215 -5.15821 -12.2819C-5.58302 -11.5423 -5.80668 -10.7043 -5.80688 -9.85138L-5.75742 4.74394C-5.75234 5.59863 -5.52325 6.43707 -5.09305 7.17562C-4.66285 7.91416 -4.04653 8.52702 -3.30559 8.95308L9.35169 16.201C10.0928 16.6274 10.9334 16.8507 11.7885 16.8483C12.6435 16.8459 13.4828 16.6178 14.2215 16.1872L26.8393 8.84792C27.5737 8.41472 28.1823 7.79725 28.6047 7.05662C29.0272 6.31599 29.249 5.47788 29.2481 4.62522L29.1986 -9.9701C29.1925 -10.8223 28.9639 -11.6581 28.5354 -12.3948C28.1069 -13.1314 27.4934 -13.7434 26.7556 -14.17Z" fill="#FFF19F"/>
<path d="M66.4487 55.1808L53.788 47.9312C53.0472 47.5053 52.2072 47.2825 51.3528 47.2852C50.4983 47.288 49.6598 47.5162 48.9218 47.9469L36.3075 55.284C35.5707 55.714 34.9594 56.3296 34.5346 57.0694C34.1098 57.8092 33.8862 58.6474 33.8862 59.5005L33.9359 74.0958C33.941 74.9505 34.17 75.7889 34.6002 76.5275C35.0304 77.266 35.6467 77.8789 36.3877 78.3049L49.045 85.5528C49.7862 85.9793 50.6267 86.2026 51.4818 86.2002C52.3369 86.1977 53.1762 85.9697 53.9149 85.539L66.5326 78.1998C67.267 77.7665 67.8755 77.1491 68.298 76.4084C68.7205 75.6678 68.9423 74.8297 68.9414 73.9771L68.8919 59.3817C68.8859 58.5294 68.6572 57.6933 68.2287 56.9565C67.8002 56.2196 67.1866 55.6075 66.4487 55.1808Z" fill="#FFF19F"/>
<path d="M60.7063 59.5074L52.8811 55.0277C52.4233 54.7645 51.9042 54.6268 51.3762 54.6285C50.8481 54.6302 50.3299 54.7712 49.8738 55.0373L42.0775 59.5721C41.6221 59.8378 41.2443 60.2183 40.9817 60.6755C40.7191 61.1328 40.581 61.6508 40.5811 62.1781L40.6116 71.1988C40.6147 71.727 40.7563 72.2451 41.0221 72.7015C41.2879 73.1579 41.6687 73.5367 42.1266 73.8001L49.9495 78.2796C50.4075 78.5432 50.927 78.6813 51.4555 78.6798C51.984 78.6784 52.5027 78.5374 52.9592 78.2712L60.7577 73.7351C61.2116 73.4674 61.5877 73.0858 61.8489 72.628C62.11 72.1703 62.2472 71.6523 62.2466 71.1252L62.2161 62.1048C62.2126 61.5778 62.0714 61.0609 61.8066 60.6053C61.5417 60.1497 61.1624 59.7712 60.7063 59.5074Z" fill="#FFEB6F"/>
<path d="M21.0871 59.5972L13.2623 55.1175C12.8044 54.8544 12.2852 54.7167 11.7572 54.7184C11.2291 54.7201 10.7108 54.8611 10.2547 55.1272L2.45838 59.662C2.00303 59.9278 1.62526 60.3082 1.3627 60.7655C1.10015 61.2227 0.961967 61.7407 0.961914 62.268L0.992683 71.2887C0.995767 71.8169 1.13726 72.335 1.40308 72.7914C1.6689 73.2479 2.04975 73.6266 2.50763 73.8899L10.3304 78.3694C10.7884 78.6331 11.3079 78.7712 11.8364 78.7697C12.3648 78.7682 12.8835 78.6273 13.3401 78.361L21.1385 73.825C21.5924 73.5572 21.9686 73.1756 22.2298 72.7179C22.491 72.2601 22.6281 71.7421 22.6277 71.2151L22.5976 62.1933C22.5938 61.6665 22.4524 61.1498 22.1875 60.6945C21.9226 60.2391 21.5432 59.8609 21.0871 59.5972Z" fill="#FFDD0F"/>
<path d="M26.8301 55.315L14.1691 48.0655C13.4284 47.6396 12.5884 47.4168 11.734 47.4195C10.8796 47.4223 10.0411 47.6505 9.30313 48.0812L-3.31115 55.4183C-4.04794 55.8483 -4.65919 56.4639 -5.08401 57.2036C-5.50883 57.9434 -5.73241 58.7816 -5.73242 59.6347L-5.68296 74.2301C-5.67787 75.0847 -5.44878 75.9232 -5.01858 76.6617C-4.58838 77.4003 -3.97207 78.0131 -3.23113 78.4392L9.42616 85.6871C10.1673 86.1135 11.0078 86.3369 11.8629 86.3344C12.718 86.332 13.5573 86.104 14.296 85.6733L26.9138 78.334C27.6482 77.9009 28.2568 77.2834 28.6793 76.5427C29.1017 75.8021 29.3235 74.964 29.3225 74.1113L29.2731 59.516C29.2671 58.6636 29.0386 57.8276 28.6101 57.0907C28.1816 56.3539 27.568 55.7418 26.8301 55.315Z" fill="#FFF19F"/>
<path d="M20.9856 -9.88804L13.1604 -14.3688C12.7026 -14.632 12.1835 -14.7697 11.6555 -14.768C11.1274 -14.7663 10.6092 -14.6253 10.1531 -14.3591L2.35681 -9.82438C1.90139 -9.55866 1.52355 -9.17822 1.26098 -8.72097C0.998417 -8.26372 0.860296 -7.74565 0.860352 -7.21837L0.890858 1.80232C0.893819 2.33068 1.03528 2.84902 1.3011 3.30565C1.56692 3.76227 1.94786 4.14122 2.40585 4.40467L10.2288 8.88416C10.6868 9.14783 11.2063 9.2859 11.7348 9.28443C12.2633 9.28295 12.782 9.14199 13.2385 8.87577L21.037 4.33972C21.4909 4.07199 21.867 3.69036 22.1282 3.23261C22.3893 2.77486 22.5264 2.25685 22.5259 1.72984L22.4954 -7.29064C22.4919 -7.81761 22.3507 -8.33452 22.0858 -8.79012C21.821 -9.24573 21.4417 -9.62421 20.9856 -9.88804Z" fill="#FFEB6F"/>
<path d="M20.9856 59.4174L13.1604 54.9367C12.7026 54.6735 12.1835 54.5358 11.6555 54.5375C11.1274 54.5392 10.6092 54.6802 10.1531 54.9463L2.35681 59.4811C1.90139 59.7468 1.52355 60.1273 1.26098 60.5845C0.998417 61.0418 0.860296 61.5598 0.860352 62.0871L0.890858 71.1078C0.893819 71.6362 1.03528 72.1545 1.3011 72.6111C1.56692 73.0678 1.94786 73.4467 2.40585 73.7102L10.2288 78.1896C10.6868 78.4533 11.2063 78.5914 11.7348 78.5899C12.2633 78.5884 12.782 78.4475 13.2385 78.1813L21.037 73.6452C21.4909 73.3775 21.867 72.9958 22.1282 72.5381C22.3893 72.0803 22.5264 71.5623 22.5259 71.0353L22.4954 62.0148C22.4919 61.4879 22.3507 60.971 22.0858 60.5154C21.821 60.0598 21.4417 59.6813 20.9856 59.4174Z" fill="#FFEB6F"/>
</g>
<defs>
<clipPath id="clip0_451:49376">
<path d="M0 32C0 14.3269 14.3269 0 32 0C49.6731 0 64 14.3269 64 32C64 49.6731 49.6731 64 32 64C14.3269 64 0 49.6731 0 32Z" fill="white"/>
</clipPath>
</defs>
</svg>
